<?xml version="1.0" standalone="no"?>
<!DOCTYPE svg PUBLIC "-//W3C//DTD SVG 20010904//EN"
 "http://www.w3.org/TR/2001/REC-SVG-20010904/DTD/svg10.dtd">
<svg version="1.0" xmlns="http://www.w3.org/2000/svg"
 width="157.000000pt" height="256.000000pt" viewBox="0 0 157.000000 256.000000"
 preserveAspectRatio="xMidYMid meet">

<g transform="translate(0.000000,256.000000) scale(0.100000,-0.100000)"
fill="#000000" stroke="none">
<path d="M541 2545 c-99 -22 -181 -52 -276 -101 -143 -73 -265 -164 -265 -197
0 -42 290 -1831 298 -1839 6 -6 12 3 16 24 12 59 325 2052 328 2088 4 42 -8
45 -101 25z"/>
<path d="M920 2543 c0 -10 36 -245 80 -523 44 -278 119 -748 166 -1045 47
-297 87 -548 90 -559 4 -10 10 -14 15 -9 8 8 21 89 204 1248 l97 610 -34 29
c-145 124 -388 237 -565 261 -47 6 -53 5 -53 -12z"/>
<path d="M777 2273 c-4 -6 -16 -70 -27 -144 -11 -74 -86 -550 -165 -1059 -79
-509 -146 -945 -147 -970 -3 -43 -2 -45 32 -56 91 -30 234 -46 360 -40 133 7
287 35 300 55 4 7 5 22 3 34 -2 12 -77 503 -168 1090 -91 588 -169 1076 -174
1084 -5 9 -11 11 -14 6z"/>
</g>
</svg>
